<svg width="971" height="162" viewBox="0 0 971 162" fill="none" xmlns="http://www.w3.org/2000/svg">
<path d="M483.9 155.855C506.483 155.855 524.102 143.003 524.102 121.957V40.668H503.12V52.3956C497.194 43.5598 488.705 39.3828 477.973 39.3828C455.71 39.3828 442.736 58.3397 442.736 80.0276C442.736 103.804 458.113 120.19 477.973 120.19C488.545 120.19 496.873 115.692 502.96 107.017V124.689C502.96 135.452 494.951 141.075 484.22 141.075C475.731 141.075 468.203 137.701 465.641 126.777H444.178C447.702 146.376 464.359 155.855 483.9 155.855ZM225.388 120.19H246.531V58.0184H272.638V40.668H246.531V29.5831C246.531 24.2816 248.613 22.1932 253.898 22.1932H277.443V5.16414H251.976C234.358 5.16414 225.388 12.8754 225.388 29.5831V40.668H202.965V58.0184H225.388V120.19ZM300.027 121.797C310.758 121.797 320.849 117.299 325.493 109.266V120.19H345.034L344.874 67.0148C344.874 49.3432 332.221 38.7402 312.36 38.7402C294.901 38.7402 281.127 47.0941 276.963 64.7657H297.464C299.546 57.0544 305.312 53.5201 312.199 53.5201C320.368 53.5201 325.493 58.5003 325.493 66.2116V69.9065L305.472 73.4409C290.096 76.1719 273.759 83.4012 273.759 99.627C273.759 113.282 285.451 121.797 300.027 121.797ZM308.035 107.338C300.027 107.338 295.382 103.322 295.382 97.3779C295.382 91.1125 300.828 87.2569 310.117 85.6503L325.333 83.0799L325.493 89.6666C325.493 100.43 318.606 107.338 308.035 107.338ZM358.488 120.19H379.63V40.668H358.488V120.19ZM393.885 120.19H415.027V80.6702C415.027 67.0148 419.993 58.0184 433.607 58.0184H441.455V39.3828H437.451C426.399 39.3828 418.871 44.2024 414.707 53.8414V40.668H393.885V120.19ZM369.059 28.6192C376.107 28.6192 381.712 22.9964 381.712 15.9278C381.712 8.85912 376.107 3.23633 369.059 3.23633C362.012 3.23633 356.406 8.85912 356.406 15.9278C356.406 22.9964 362.012 28.6192 369.059 28.6192ZM484.22 104.286C470.766 104.286 464.519 93.5222 464.519 79.8669C464.519 66.5329 470.766 55.1266 484.22 55.1266C497.994 55.1266 504.081 67.1755 504.081 79.8669C504.081 93.3616 497.834 104.286 484.22 104.286ZM538.357 120.19H559.499V80.6702C559.499 67.0148 564.464 58.0184 578.079 58.0184H585.927V39.3828H581.923C570.871 39.3828 563.343 44.2024 559.179 53.8414V40.668H538.357V120.19ZM627.891 122.118C652.236 122.118 668.894 104.768 668.894 80.3489C668.894 56.4118 652.717 38.7402 627.891 38.7402C603.866 38.7402 586.888 55.2873 586.888 80.6702C586.888 105.41 603.866 122.118 627.891 122.118ZM627.891 106.053C614.116 106.053 608.35 94.3255 608.35 80.5095C608.35 66.6935 614.597 54.8053 627.891 54.8053C641.665 54.8053 647.431 67.0148 647.431 80.5095C647.431 94.6468 641.665 106.053 627.891 106.053ZM713.901 122.118C736.004 122.118 749.939 108.463 749.939 87.8995V40.668H728.797V89.024C728.797 98.9844 723.511 105.732 713.901 105.732C704.771 105.732 699.005 99.7876 699.005 89.024V40.668H677.863V87.8995C677.863 110.712 694.04 122.118 713.901 122.118ZM763.553 120.19H784.695V74.4048C784.695 63.4805 790.461 55.7692 800.712 55.7692C809.201 55.7692 815.127 61.5527 815.127 70.2278V120.19H836.269V68.3C836.269 49.8251 824.417 39.0615 808.721 39.0615C798.31 39.0615 789.821 43.3991 784.375 51.9136V40.668H763.553V120.19ZM886.883 105.732C873.909 105.732 867.182 95.1288 867.182 80.6702C867.182 67.4968 872.948 55.2873 886.883 55.2873C900.016 55.2873 906.743 66.2116 906.743 80.6702C906.743 92.8796 901.298 105.732 886.883 105.732ZM880.796 121.636C893.129 121.636 901.458 115.049 905.782 108.302V120.19H926.925V5.16414H905.782V52.3956C900.337 43.5598 891.207 39.3828 880.796 39.3828C858.853 39.3828 845.399 58.179 845.399 80.6702C845.399 103.643 859.814 121.636 880.796 121.636Z" fill="white"/>
<circle cx="61.3004" cy="20.5866" r="20.5866" fill="white"/>
<circle cx="101.392" cy="80.6974" r="20.5866" fill="white"/>
<circle cx="21.2096" cy="20.5866" r="20.5866" fill="white"/>
<circle cx="21.2096" cy="80.6974" r="20.5866" fill="white"/>
<circle cx="21.2096" cy="140.809" r="20.5866" fill="white"/>
<circle cx="20.5866" cy="20.5866" r="20.5866" transform="matrix(-1 0 0 1 121.979 0)" fill="white"/>
<circle cx="20.5866" cy="20.5866" r="20.5866" transform="matrix(-1 0 0 1 81.8867 60.1108)" fill="white"/>
<circle cx="20.5866" cy="20.5866" r="20.5866" transform="matrix(-1 0 0 1 162.069 0)" fill="white"/>
</svg>
